<svg xmlns="http://www.w3.org/2000/svg" height="24px" viewBox="0 -960 960 960" width="24px" fill="#000000"><path d="M480-80q-139-35-229.5-159.5T160-516v-244l320-120 320 120v244q0 85-29 163.5T688-214L560-342q-18 11-38.5 16.5T480-320q-66 0-113-47t-47-113q0-66 47-113t113-47q66 0 113 47t47 113q0 22-5.5 42.5T618-398l60 60q20-41 31-86t11-92v-189l-240-90-240 90v189q0 121 68 220t172 132q26-8 49.5-20.5T576-214l56 56q-33 27-71.5 47T480-80Zm56.5-343.5Q560-447 560-480t-23.5-56.5Q513-560 480-560t-56.5 23.5Q400-513 400-480t23.5 56.5Q447-400 480-400t56.5-23.5ZM488-477Z"/></svg>